<svg width="24" height="21" viewBox="0 0 24 21" fill="none" xmlns="http://www.w3.org/2000/svg">
<path d="M10.0369 1.96274L1.30748 16.1027C1.1275 16.4052 1.03227 16.748 1.03126 17.0973C1.03025 17.4465 1.1235 17.7899 1.30173 18.0933C1.47997 18.3967 1.73697 18.6495 2.04717 18.8266C2.35737 19.0037 2.70995 19.0989 3.06985 19.1027H20.5286C20.8885 19.0989 21.2411 19.0037 21.5513 18.8266C21.8615 18.6495 22.1185 18.3967 22.2968 18.0933C22.475 17.7899 22.5682 17.4465 22.5672 17.0973C22.5662 16.748 22.471 16.4052 22.291 16.1027L13.5616 1.96274C13.3779 1.66885 13.1192 1.42586 12.8105 1.25723C12.5018 1.08859 12.1535 1 11.7992 1C11.445 1 11.0967 1.08859 10.788 1.25723C10.4793 1.42586 10.2206 1.66885 10.0369 1.96274Z" stroke="#FF9356" stroke-width="2" stroke-linecap="round" stroke-linejoin="round"/>
<path d="M11.7988 7.10156V11.1016" stroke="#FF9356" stroke-width="2" stroke-linecap="round" stroke-linejoin="round"/>
<path d="M11.7988 15.1016H11.8088" stroke="#FF9356" stroke-width="2" stroke-linecap="round" stroke-linejoin="round"/>
</svg>
