<svg width="220" height="59" viewBox="0 0 220 59" fill="none" xmlns="http://www.w3.org/2000/svg">
<path d="M10.2316 47.9514C5.77866 47.9514 2.82135 46.0308 2.46443 42.9036H5.82965C6.18657 44.3482 7.93716 45.283 10.2826 45.283C13.3419 45.283 15.0245 43.7534 15.0245 40.966V37.8727H14.7016C13.9708 39.8613 11.8803 41.102 9.16088 41.102C4.89487 41.102 2.1415 38.0427 2.1415 33.2158V30.0545C2.1415 25.2107 4.91186 22.1684 9.27985 22.1684C11.9652 22.1684 14.0048 23.3921 14.7526 25.4146H15.0755V22.4743H18.4407V40.983C18.4407 45.334 15.3644 47.9514 10.2316 47.9514ZM5.6087 32.8929C5.6087 36.0541 7.44428 38.0937 10.3166 38.0937C13.172 38.0937 15.0245 36.0541 15.0245 32.8929V30.3265C15.0245 27.1482 13.172 25.1257 10.3166 25.1257C7.44428 25.1257 5.6087 27.1652 5.6087 30.3265V32.8929ZM32.2755 41.3569C27.2787 41.3569 24.1004 38.1617 24.1004 33.1478V30.3435C24.1004 25.3126 27.2787 22.1344 32.2755 22.1344C37.2724 22.1344 40.4506 25.3126 40.4506 30.3435V33.1478C40.4506 38.1617 37.2724 41.3569 32.2755 41.3569ZM32.2755 25.0237C29.3182 25.0237 27.4656 27.1482 27.4656 30.5814V32.9099C27.4656 36.3431 29.3182 38.4676 32.2755 38.4676C35.2328 38.4676 37.0854 36.3431 37.0854 32.9099V30.5814C37.0854 27.1482 35.2328 25.0237 32.2755 25.0237ZM53.2657 47.9514C48.8127 47.9514 45.8554 46.0308 45.4985 42.9036H48.8637C49.2206 44.3482 50.9712 45.283 53.3167 45.283C56.376 45.283 58.0586 43.7534 58.0586 40.966V37.8727H57.7356C57.0048 39.8613 54.9143 41.102 52.1949 41.102C47.9289 41.102 45.1755 38.0427 45.1755 33.2158V30.0545C45.1755 25.2107 47.9459 22.1684 52.3139 22.1684C54.9993 22.1684 57.0388 23.3921 57.7866 25.4146H58.1096V22.4743H61.4748V40.983C61.4748 45.334 58.3985 47.9514 53.2657 47.9514ZM48.6427 32.8929C48.6427 36.0541 50.4783 38.0937 53.3507 38.0937C56.206 38.0937 58.0586 36.0541 58.0586 32.8929V30.3265C58.0586 27.1482 56.206 25.1257 53.3507 25.1257C50.4783 25.1257 48.6427 27.1652 48.6427 30.3265V32.8929ZM75.3096 41.3569C70.3127 41.3569 67.1345 38.1617 67.1345 33.1478V30.3435C67.1345 25.3126 70.3127 22.1344 75.3096 22.1344C80.3064 22.1344 83.4847 25.3126 83.4847 30.3435V33.1478C83.4847 38.1617 80.3064 41.3569 75.3096 41.3569ZM75.3096 25.0237C72.3523 25.0237 70.4997 27.1482 70.4997 30.5814V32.9099C70.4997 36.3431 72.3523 38.4676 75.3096 38.4676C78.2669 38.4676 80.1195 36.3431 80.1195 32.9099V30.5814C80.1195 27.1482 78.2669 25.0237 75.3096 25.0237ZM104.951 41H89.3993V38.2466H95.6029V18.0213H89.5353V15.251H99.0021V38.2466H104.951V41ZM118.344 41.17C116.542 41.17 115.08 39.6573 115.08 37.8387C115.08 36.0032 116.542 34.5075 118.344 34.5075C120.145 34.5075 121.607 36.0032 121.607 37.8387C121.607 39.6573 120.145 41.17 118.344 41.17ZM147.781 28.4399H144.416C144.093 26.2984 142.427 25.0237 140.167 25.0237C137.158 25.0237 135.493 27.1312 135.493 30.9383V32.502C135.493 36.3091 137.158 38.4166 140.167 38.4166C142.444 38.4166 144.076 37.1759 144.416 35.0854H147.781C147.322 39.0285 144.518 41.3569 140.201 41.3569C135.051 41.3569 132.076 38.2636 132.076 32.8589V30.5814C132.076 25.1767 135.051 22.1004 140.201 22.1004C144.518 22.1004 147.322 24.4288 147.781 28.4399ZM153.559 41V15.251H156.857V25.7205H157.112C158.063 23.4431 160.171 22.1514 162.975 22.1514C167.003 22.1514 169.196 24.5818 169.196 29.0178V41H165.797V29.8506C165.797 26.7063 164.488 25.1937 161.752 25.1937C158.879 25.1937 156.976 27.1822 156.976 30.1735V41H153.559ZM180.838 41.3059C177.303 41.3059 174.958 39.0794 174.958 35.7312C174.958 32.434 177.337 30.4964 181.654 30.2415L186.515 29.9865V28.3549C186.515 26.2304 185.189 25.0407 182.81 25.0407C180.838 25.0407 179.427 25.8905 178.986 27.3522H175.654C175.994 24.2929 178.901 22.2193 182.878 22.2193C187.348 22.2193 189.897 24.4628 189.897 28.3549V41.017H186.651V38.3146H186.328C185.444 40.2182 183.456 41.3059 180.838 41.3059ZM181.892 38.4676C184.543 38.4676 186.515 36.717 186.515 34.3545V32.4L182.113 32.6209C179.648 32.7569 178.357 33.7767 178.357 35.5783C178.357 37.3628 179.716 38.4676 181.892 38.4676ZM201.046 17.4095H204.412V22.5763H211.737V25.3806H204.463V35.3913C204.463 37.2269 205.737 38.2296 208.1 38.2296C208.967 38.2296 211.227 38.1956 211.635 38.1447V40.932C211.261 41 208.576 41.068 207.862 41.068C203.12 41.068 201.046 39.3684 201.046 35.3913V25.3806H196.152V22.5763H201.046V17.4095Z" fill="white"/>
<path d="M216.825 52.2122L217.55 10.1526" stroke="#4317C1" stroke-width="3.62583" stroke-linecap="round"/>
</svg>
