<svg width="101" height="102" viewBox="0 0 101 102" fill="none" xmlns="http://www.w3.org/2000/svg">
<path d="M94.3657 41.7394C95.5106 38.3049 95.9065 34.6666 95.5271 31.0675C95.1477 27.4683 94.0017 23.9913 92.1656 20.8686C89.4436 16.1487 85.2872 12.4118 80.2958 10.1967C75.3044 7.98163 69.7358 7.40279 64.3928 8.54365C61.3574 5.18005 57.4869 2.67132 53.1701 1.26942C48.8534 -0.132479 44.2423 -0.378185 39.8001 0.556978C35.3578 1.49214 31.2408 3.57525 27.8625 6.59708C24.4841 9.61892 21.9634 13.4731 20.5536 17.7725C16.9941 18.4996 13.6313 19.9752 10.6901 22.1007C7.74892 24.2261 5.29698 26.9524 3.49819 30.0975C0.74657 34.8095 -0.429453 40.2712 0.140141 45.693C0.709734 51.1147 2.99543 56.2155 6.66677 60.2579C5.5177 63.6908 5.11778 67.3285 5.49375 70.9277C5.86971 74.5269 7.01291 78.0047 8.84685 81.1283C11.5723 85.85 15.7323 89.5877 20.7273 91.8028C25.7222 94.0179 31.2942 94.596 36.6401 93.4537C39.0517 96.1591 42.0149 98.3207 45.3319 99.7944C48.6489 101.268 52.2433 102.02 55.8752 102C61.3515 102.005 66.6879 100.276 71.1138 97.0632C75.5398 93.8504 78.8265 89.3197 80.4994 84.125C84.0585 83.3966 87.4207 81.9205 90.3618 79.7951C93.3028 77.6697 95.755 74.9439 97.5548 71.7996C100.274 67.0945 101.43 61.6533 100.857 56.2542C100.284 50.8552 98.0121 45.7744 94.3657 41.7394ZM55.8752 95.3237C51.3901 95.3308 47.0456 93.7648 43.6036 90.9003L44.209 90.5586L64.5946 78.8363C65.102 78.5399 65.5232 78.1171 65.817 77.6094C66.1107 77.1018 66.2668 76.5267 66.27 75.9408V47.3091L74.8879 52.2756C74.9305 52.2971 74.9674 52.3283 74.9956 52.3667C75.0238 52.4051 75.0424 52.4496 75.05 52.4966V76.2226C75.0392 81.2853 73.0155 86.1375 69.4219 89.7174C65.8282 93.2972 60.9573 95.313 55.8752 95.3237ZM14.6597 77.7908C12.4104 73.9217 11.6028 69.3864 12.3789 64.9826L12.9847 65.3447L33.3905 77.067C33.8954 77.3622 34.4702 77.5178 35.0556 77.5178C35.641 77.5178 36.2158 77.3622 36.7207 77.067L61.6479 62.751V72.6636C61.6455 72.715 61.6316 72.7652 61.6071 72.8105C61.5825 72.8557 61.5481 72.8949 61.5062 72.925L40.8582 84.788C36.4516 87.3168 31.2178 88.0003 26.3059 86.6884C21.3939 85.3765 17.2053 82.1764 14.6597 77.7908ZM9.29097 33.5561C11.5559 29.6621 15.1308 26.6921 19.3829 25.1717V49.2998C19.3752 49.8827 19.5247 50.4569 19.8158 50.9627C20.1069 51.4684 20.5289 51.887 21.0378 52.1749L45.8438 66.4306L37.2254 71.3967C37.1788 71.4214 37.1268 71.4343 37.074 71.4343C37.0212 71.4343 36.9692 71.4214 36.9225 71.3967L16.315 59.5541C11.9167 57.0144 8.70798 52.8419 7.39147 47.9503C6.07496 43.0587 6.75799 37.8468 9.29097 33.4558V33.5561ZM80.0958 49.9432L55.2092 35.5468L63.8075 30.5998C63.8541 30.5751 63.9061 30.5622 63.9589 30.5622C64.0118 30.5622 64.0638 30.5751 64.1104 30.5998L84.7179 42.4628C87.8688 44.2739 90.4375 46.9406 92.124 50.1515C93.8106 53.3624 94.5455 56.9849 94.2429 60.5962C93.9403 64.2075 92.6127 67.6586 90.415 70.5465C88.2174 73.4343 85.2405 75.6399 81.8318 76.9055V52.7775C81.8139 52.1956 81.6444 51.6283 81.34 51.1313C81.0356 50.6343 80.6071 50.2252 80.0958 49.9432ZM88.6741 37.0951L88.0682 36.733L67.7031 24.9103C67.195 24.6134 66.6167 24.4568 66.0277 24.4568C65.4387 24.4568 64.8603 24.6134 64.3523 24.9103L39.4461 39.226V29.3138C39.4407 29.2634 39.4492 29.2125 39.4705 29.1665C39.4919 29.1205 39.5253 29.081 39.5672 29.0524L60.1747 17.2094C63.3331 15.3968 66.9443 14.5176 70.5859 14.6745C74.2275 14.8314 77.749 16.018 80.7385 18.0954C83.728 20.1729 86.0619 23.0553 87.4672 26.4056C88.8726 29.7559 89.2914 33.4356 88.6745 37.0143L88.6741 37.0951ZM34.7425 54.6675L26.1245 49.7213C26.0814 49.6955 26.0445 49.6605 26.0165 49.6188C25.9885 49.5772 25.97 49.5299 25.9624 49.4804V25.8152C25.9671 22.1847 27.0093 18.6306 28.967 15.5684C30.9246 12.5063 33.7169 10.0625 37.0174 8.52298C40.3179 6.98343 43.9901 6.41168 47.6048 6.87458C51.2194 7.33749 54.6271 8.81591 57.4294 11.137L56.8236 11.4791L36.4383 23.2006C35.9309 23.497 35.5097 23.9198 35.216 24.4275C34.9222 24.9351 34.7661 25.5102 34.7629 26.0961L34.7425 54.6675ZM39.4251 44.6146L50.5261 38.2404L61.6479 44.6146V57.362L50.5666 63.7357L39.4456 57.362L39.4251 44.6146Z" fill="white"/>
</svg>
