<svg width="18" height="22" viewBox="0 0 18 22" fill="none" xmlns="http://www.w3.org/2000/svg">
<path fill-rule="evenodd" clip-rule="evenodd" d="M9 0.25C12.174 0.25 14.75 2.826 14.75 6C14.75 9.174 12.174 11.75 9 11.75C5.826 11.75 3.25 9.174 3.25 6C3.25 2.826 5.826 0.25 9 0.25ZM9 1.75C6.654 1.75 4.75 3.654 4.75 6C4.75 8.346 6.654 10.25 9 10.25C11.346 10.25 13.25 8.346 13.25 6C13.25 3.654 11.346 1.75 9 1.75Z" fill="white"/>
<path fill-rule="evenodd" clip-rule="evenodd" d="M14.438 12.2074C14.164 11.8974 14.193 11.4224 14.504 11.1484C14.814 10.8744 15.288 10.9044 15.562 11.2144C16.924 12.7574 17.75 14.7834 17.75 17.0004C17.75 18.9464 16.276 20.0924 14.408 20.6764C12.158 21.3794 9.388 21.2704 9.007 21.2514C8.645 21.2694 5.855 21.3834 3.592 20.6764C1.724 20.0924 0.25 18.9464 0.25 17.0004C0.25 14.7834 1.076 12.7574 2.438 11.2144C2.712 10.9044 3.186 10.8744 3.496 11.1484C3.807 11.4224 3.836 11.8974 3.562 12.2074C2.435 13.4854 1.75 15.1634 1.75 17.0004C1.75 18.2564 2.834 18.8674 4.04 19.2444C6.223 19.9274 8.953 19.7514 8.953 19.7514C8.984 19.7504 9.016 19.7504 9.047 19.7514C9.047 19.7514 11.777 19.9274 13.96 19.2444C15.166 18.8674 16.25 18.2564 16.25 17.0004C16.25 15.1634 15.565 13.4854 14.438 12.2074Z" fill="white"/>
</svg>
